PathFileType	4	(X/Y/Z) shrug_2kg_3.trc																										
DataRate	CameraRate	NumFrames	NumMarkers	Units	OrigDataRate	OrigDataStartFrame	OrigNumFrames																					
100	100	34	9	mm	100	279	556																					
Frame#	Time	gu			centelbow			EpL			centpxt8			centijc7			ij			ts			aa			ai		
		X1	Y1	Z1	X2	Y2	Z2	X3	Y3	Z3	X4	Y4	Z4	X5	Y5	Z5	X6	Y6	Z6	X7	Y7	Z7	X8	Y8	Z8	X9	Y9	Z9  
278	2.78	-111.235	28.935	143.106	-102.957	-212.774	193.032	-97.104	-202.312	222.961	-46.816	-153.158	-8.669	-46.816	31.938	-8.669	0	0	0	-122.541	37.509	9.81	-144.954	59.034	124.959	-129.127	-73.07	34.597
279	2.79	-111.165	29.109	142.976	-102.736	-212.579	192.977	-96.873	-202.104	222.899	-46.816	-153.158	-8.669	-46.816	31.938	-8.669	0	0	0	-122.406	37.478	9.77	-144.765	58.973	124.934	-128.977	-73.108	34.532
280	2.8	-111.297	29.174	142.951	-102.706	-212.494	193.019	-96.836	-202.007	222.936	-46.816	-153.158	-8.669	-46.816	31.938	-8.669	0	0	0	-122.377	37.605	9.794	-144.678	59.057	124.978	-128.907	-72.991	34.524
281	2.81	-111.418	29.112	142.815	-102.71	-212.539	192.947	-96.823	-202.041	222.857	-46.816	-153.158	-8.669	-46.816	31.938	-8.669	0	0	0	-122.489	37.848	9.724	-144.712	59.262	124.93	-128.971	-72.756	34.428
282	2.82	-111.373	29.01	142.464	-102.596	-212.624	192.667	-96.681	-202.116	222.567	-46.816	-153.158	-8.669	-46.816	31.938	-8.669	0	0	0	-122.652	37.999	9.489	-144.797	59.387	124.715	-129.112	-72.611	34.173
283	2.83	-111.273	28.855	142.182	-102.478	-212.768	192.433	-96.536	-202.254	222.325	-46.816	-153.158	-8.669	-46.816	31.938	-8.669	0	0	0	-122.798	37.943	9.225	-144.891	59.305	124.465	-129.277	-72.672	33.881
284	2.84	-111.306	28.624	142.267	-102.528	-213.007	192.485	-96.572	-202.497	222.376	-46.816	-153.158	-8.669	-46.816	31.938	-8.669	0	0	0	-122.88	37.794	9.141	-144.948	59.116	124.394	-129.395	-72.829	33.754
285	2.85	-111.541	28.432	142.498	-102.746	-213.215	192.636	-96.782	-202.714	222.529	-46.816	-153.158	-8.669	-46.816	31.938	-8.669	0	0	0	-122.883	37.686	9.278	-144.94	58.957	124.543	-129.419	-72.947	33.838
286	2.86	-111.836	28.408	142.476	-102.955	-213.24	192.596	-96.971	-202.74	222.485	-46.816	-153.158	-8.669	-46.816	31.938	-8.669	0	0	0	-122.901	37.62	9.501	-144.952	58.837	124.777	-129.441	-73.025	34.008
287	2.87	-111.964	28.458	142.257	-102.984	-213.166	192.472	-96.969	-202.652	222.35	-46.816	-153.158	-8.669	-46.816	31.938	-8.669	0	0	0	-123.034	37.558	9.673	-145.085	58.724	124.958	-129.575	-73.098	34.129
288	2.88	-111.882	28.328	142.12	-102.862	-213.262	192.49	-96.812	-202.728	222.354	-46.816	-153.158	-8.669	-46.816	31.938	-8.669	0	0	0	-123.168	37.503	9.751	-145.207	58.626	125.045	-129.72	-73.162	34.165
289	2.89	-111.755	27.973	142.139	-102.74	-213.589	192.644	-96.654	-203.039	222.495	-46.816	-153.158	-8.669	-46.816	31.938	-8.669	0	0	0	-123.107	37.465	9.808	-145.107	58.562	125.115	-129.686	-73.205	34.192
290	2.9	-111.748	27.658	142.319	-102.706	-213.887	192.901	-96.585	-203.327	222.741	-46.816	-153.158	-8.669	-46.816	31.938	-8.669	0	0	0	-122.915	37.396	9.941	-144.87	58.469	125.261	-129.533	-73.278	34.296
291	2.91	-111.903	27.576	142.681	-102.751	-213.955	193.309	-96.606	-203.387	223.141	-46.816	-153.158	-8.669	-46.816	31.938	-8.669	0	0	0	-122.848	37.183	10.133	-144.778	58.208	125.467	-129.516	-73.5	34.432
292	2.92	-112.202	27.632	143.081	-102.874	-213.872	193.806	-96.708	-203.287	223.629	-46.816	-153.158	-8.669	-46.816	31.938	-8.669	0	0	0	-123.007	36.861	10.296	-144.915	57.795	125.651	-129.722	-73.84	34.499
293	2.93	-112.63	27.697	143.338	-103.061	-213.753	194.274	-96.857	-203.136	224.077	-46.816	-153.158	-8.669	-46.816	31.938	-8.669	0	0	0	-123.248	36.696	10.432	-145.081	57.483	125.827	-129.975	-74.035	34.493
294	2.94	-113.048	27.867	143.484	-103.117	-213.503	194.731	-96.843	-202.838	224.502	-46.816	-153.158	-8.669	-46.816	31.938	-8.669	0	0	0	-123.403	36.915	10.608	-145.065	57.483	126.074	-130.079	-73.862	34.472
295	2.95	-113.186	28.217	143.605	-102.726	-213.047	195.243	-96.344	-202.321	224.969	-46.816	-153.158	-8.669	-46.816	31.938	-8.669	0	0	0	-123.472	37.439	10.812	-144.849	57.702	126.386	-130.036	-73.402	34.41
296	2.96	-112.972	28.506	143.703	-101.839	-212.626	195.816	-95.306	-201.824	225.482	-46.816	-153.158	-8.669	-46.816	31.938	-8.669	0	0	0	-123.523	37.851	11.034	-144.531	57.713	126.744	-129.973	-73.072	34.275
297	2.97	-112.691	28.446	143.83	-100.77	-212.538	196.452	-94.054	-201.651	226.046	-46.816	-153.158	-8.669	-46.816	31.938	-8.669	0	0	0	-123.582	37.796	11.418	-144.243	57.139	127.279	-129.991	-73.23	34.177
298	2.98	-112.636	27.984	144.035	-99.836	-212.863	197.075	-92.926	-201.9	226.596	-46.816	-153.158	-8.669	-46.816	31.938	-8.669	0	0	0	-123.699	37.491	12.019	-144.149	56.207	128.02	-130.109	-73.655	34.18
299	2.99	-112.822	27.188	144.294	-99.136	-213.56	197.561	-92.04	-202.543	227.018	-46.816	-153.158	-8.669	-46.816	31.938	-8.669	0	0	0	-123.916	37.428	12.632	-144.338	55.486	128.743	-130.269	-73.843	34.174
300	3	-113.141	26.194	144.644	-98.647	-214.496	197.957	-91.393	-203.449	227.364	-46.816	-153.158	-8.669	-46.816	31.938	-8.669	0	0	0	-124.135	37.761	13.113	-144.68	55.205	129.296	-130.328	-73.627	34.093
301	3.01	-113.535	25.256	145.045	-98.285	-215.397	198.318	-90.912	-204.331	227.688	-46.816	-153.158	-8.669	-46.816	31.938	-8.669	0	0	0	-124.233	38.37	13.433	-144.959	55.245	129.667	-130.19	-73.125	33.905
302	3.02	-113.876	24.501	145.282	-97.879	-216.121	198.474	-90.423	-205.04	227.818	-46.816	-153.158	-8.669	-46.816	31.938	-8.669	0	0	0	-124.202	39.111	13.57	-145.051	55.428	129.863	-129.917	-72.485	33.549
303	3.03	-113.979	23.769	145.352	-97.322	-216.839	198.407	-89.806	-205.753	227.734	-46.816	-153.158	-8.669	-46.816	31.938	-8.669	0	0	0	-124.064	39.775	13.706	-144.92	55.516	130.076	-129.63	-71.922	33.159
304	3.04	-113.916	23.059	145.477	-96.725	-217.55	198.354	-89.171	-206.469	227.672	-46.816	-153.158	-8.669	-46.816	31.938	-8.669	0	0	0	-123.94	40.107	14.071	-144.706	55.244	130.537	-129.517	-71.689	32.944
305	3.05	-114.009	22.679	145.647	-96.305	-217.931	198.348	-88.731	-206.855	227.663	-46.816	-153.158	-8.669	-46.816	31.938	-8.669	0	0	0	-124.087	39.997	14.604	-144.704	54.523	131.174	-129.807	-71.893	32.867
306	3.06	-114.341	22.523	145.821	-96.128	-218.093	198.325	-88.541	-207.024	227.639	-46.816	-153.158	-8.669	-46.816	31.938	-8.669	0	0	0	-124.527	39.514	15.145	-144.977	53.456	131.816	-130.436	-72.461	32.818
307	3.07	-114.663	21.989	146.229	-96.061	-218.661	198.442	-88.461	-207.614	227.761	-46.816	-153.158	-8.669	-46.816	31.938	-8.669	0	0	0	-124.949	38.759	15.721	-145.282	52.162	132.476	-131.031	-73.292	32.849
308	3.08	-114.919	20.87	146.966	-96.034	-219.835	198.821	-88.429	-208.823	228.152	-46.816	-153.158	-8.669	-46.816	31.938	-8.669	0	0	0	-125.165	37.842	16.416	-145.486	50.755	133.228	-131.366	-74.276	33.052
309	3.09	-115.283	19.631	147.777	-96.032	-221.127	199.246	-88.426	-210.15	228.59	-46.816	-153.158	-8.669	-46.816	31.938	-8.669	0	0	0	-125.316	37.062	17.177	-145.691	49.505	134.03	-131.535	-75.122	33.357
310	3.1	-115.517	18.876	148.162	-95.538	-221.969	198.944	-87.854	-211.05	228.29	-46.816	-153.158	-8.669	-46.816	31.938	-8.669	0	0	0	-125.63	36.934	17.708	-145.789	48.778	134.661	-131.688	-75.335	33.349
311	3.11	-114.81	18.785	147.661	-93.509	-222.282	196.823	-85.525	-211.507	226.142	-46.816	-153.158	-8.669	-46.816	31.938	-8.669	0	0	0	-126.145	37.796	17.658	-145.224	48.667	134.886	-131.843	-74.606	32.456
